<?xml version="1.0" encoding="UTF-8"?>
<svg width="64px" height="64px" viewBox="0 0 64 64" version="1.1" xmlns="http://www.w3.org/2000/svg" xmlns:xlink="http://www.w3.org/1999/xlink">
    <title>arrow-right</title>
    <g id="arrow-right" stroke="none" stroke-width="1" fill="none" fill-rule="evenodd">
        <path d="M24.2928932,27.2928932 C24.6834175,26.9023689 25.3165825,26.9023689 25.7071068,27.2928932 C25.7904401,27.3762266 25.8529401,27.4387266 25.9258568,27.5116432 L26.1559953,27.7417817 C26.2372331,27.8230196 26.3374518,27.9232382 26.4680397,28.0538262 L26.6400514,28.2258378 C26.6713925,28.2571789 26.7041306,28.289917 26.7383568,28.3241432 L26.9622999,28.5480864 C27.0433859,28.6291724 27.1311532,28.7169396 27.2263305,28.812117 L27.5348218,29.1206082 L27.7071068,29.2928932 C27.9527208,29.5385073 28.1724807,29.7582672 28.3733847,29.9591711 L28.9265265,30.512313 C29.0116215,30.597408 29.0937521,30.6795385 29.1737929,30.7595793 L30.0899614,31.6757479 C30.2059404,31.7917269 30.3250905,31.9108769 30.4503638,32.0361503 L30.8475063,32.4332927 C31.128451,32.7142374 31.4456984,33.0314849 31.8228671,33.4086535 L32.4365134,34.0222998 C32.5841783,34.1699647 32.7398132,34.3255996 32.904293,34.4900794 L32.999,34.585 L40.2928932,27.2928932 C40.6533772,26.9324093 41.2206082,26.9046797 41.6128994,27.2097046 L41.7071068,27.2928932 C42.0976311,27.6834175 42.0976311,28.3165825 41.7071068,28.7071068 L33.7071068,36.7071068 L32.2928932,36.7071068 C31.8104371,36.2246506 31.391462,35.8056756 31.0222998,35.4365134 L30.4086535,34.8228671 C30.0314849,34.4456984 29.7142374,34.128451 29.4332927,33.8475063 L29.0361503,33.4503638 C28.9108769,33.3250905 28.7917269,33.2059404 28.6757479,33.0899614 L27.7595793,32.1737929 C27.6795385,32.0937521 27.597408,32.0116215 27.512313,31.9265265 L26.9591711,31.3733847 C26.7582672,31.1724807 26.5385073,30.9527208 26.2928932,30.7071068 C26.2333694,30.647583 26.1759715,30.590185 26.1206082,30.5348218 L25.812117,30.2263305 C25.7169396,30.1311532 25.6291724,30.0433859 25.5480864,29.9622999 L25.3241432,29.7383568 C25.289917,29.7041306 25.2571789,29.6713925 25.2258378,29.6400514 L25.0538262,29.4680397 C24.9232382,29.3374518 24.8230196,29.2372331 24.7417817,29.1559953 L24.5116432,28.9258568 C24.4387266,28.8529401 24.3762266,28.7904401 24.2928932,28.7071068 C23.9023689,28.3165825 23.9023689,27.6834175 24.2928932,27.2928932 Z" id="路径-2" fill="#000000" fill-rule="nonzero" transform="translate(33, 31.8536) rotate(-90) translate(-33, -31.8536)"></path>
    </g>
</svg>