<?xml version="1.0" encoding="UTF-8"?>
<svg width="64px" height="64px" viewBox="0 0 64 64" version="1.1" xmlns="http://www.w3.org/2000/svg" xmlns:xlink="http://www.w3.org/1999/xlink">
    <title>arrow-down</title>
    <g id="arrow-down" stroke="none" stroke-width="1" fill="none" fill-rule="evenodd">
        <path d="M22.2928932,25.2928932 C22.6834175,24.9023689 23.3165825,24.9023689 23.7071068,25.2928932 C23.7904401,25.3762266 23.8529401,25.4387266 23.9258568,25.5116432 L24.1559953,25.7417817 C24.2372331,25.8230196 24.3374518,25.9232382 24.4680397,26.0538262 L24.6400514,26.2258378 C24.6713925,26.2571789 24.7041306,26.289917 24.7383568,26.3241432 L24.9622999,26.5480864 C25.0433859,26.6291724 25.1311532,26.7169396 25.2263305,26.812117 L25.5348218,27.1206082 L25.7071068,27.2928932 C25.9527208,27.5385073 26.1724807,27.7582672 26.3733847,27.9591711 L26.9265265,28.512313 C27.0116215,28.597408 27.0937521,28.6795385 27.1737929,28.7595793 L28.0899614,29.6757479 C28.2059404,29.7917269 28.3250905,29.9108769 28.4503638,30.0361503 L28.8475063,30.4332927 C29.128451,30.7142374 29.4456984,31.0314849 29.8228671,31.4086535 L30.4365134,32.0222998 C30.5841783,32.1699647 30.7398132,32.3255996 30.904293,32.4900794 L30.999,32.585 L38.2928932,25.2928932 C38.6533772,24.9324093 39.2206082,24.9046797 39.6128994,25.2097046 L39.7071068,25.2928932 C40.0976311,25.6834175 40.0976311,26.3165825 39.7071068,26.7071068 L31.7071068,34.7071068 L30.2928932,34.7071068 C29.8104371,34.2246506 29.391462,33.8056756 29.0222998,33.4365134 L28.4086535,32.8228671 C28.0314849,32.4456984 27.7142374,32.128451 27.4332927,31.8475063 L27.0361503,31.4503638 C26.9108769,31.3250905 26.7917269,31.2059404 26.6757479,31.0899614 L25.7595793,30.1737929 C25.6795385,30.0937521 25.597408,30.0116215 25.512313,29.9265265 L24.9591711,29.3733847 C24.7582672,29.1724807 24.5385073,28.9527208 24.2928932,28.7071068 C24.2333694,28.647583 24.1759715,28.590185 24.1206082,28.5348218 L23.812117,28.2263305 C23.7169396,28.1311532 23.6291724,28.0433859 23.5480864,27.9622999 L23.3241432,27.7383568 C23.289917,27.7041306 23.2571789,27.6713925 23.2258378,27.6400514 L23.0538262,27.4680397 C22.9232382,27.3374518 22.8230196,27.2372331 22.7417817,27.1559953 L22.5116432,26.9258568 C22.4387266,26.8529401 22.3762266,26.7904401 22.2928932,26.7071068 C21.9023689,26.3165825 21.9023689,25.6834175 22.2928932,25.2928932 Z" id="路径-2" fill="#000000" fill-rule="nonzero"></path>
    </g>
</svg>