<?xml version="1.0" encoding="UTF-8"?>
<svg width="64px" height="64px" viewBox="0 0 64 64" version="1.1" xmlns="http://www.w3.org/2000/svg" xmlns:xlink="http://www.w3.org/1999/xlink">
    <title>carousel</title>
    <g id="carousel" stroke="none" stroke-width="1" fill="none" fill-rule="evenodd">
        <path d="M50.0714286,18.5 C52.5254588,18.5 54.5,20.5227008 54.5,23 L54.5,41 C54.5,43.4772992 52.5254588,45.5 50.0714286,45.5 L14.9285714,45.5 C12.4745412,45.5 10.5,43.4772992 10.5,41 L10.5,23 C10.5,20.5227008 12.4745412,18.5 14.9285714,18.5 L50.0714286,18.5 Z M50.0714286,21.5 L14.9285714,21.5 C14.147791,21.5 13.5,22.1635907 13.5,23 L13.5,41 C13.5,41.8364093 14.147791,42.5 14.9285714,42.5 L50.0714286,42.5 C50.852209,42.5 51.5,41.8364093 51.5,41 L51.5,23 C51.5,22.1635907 50.852209,21.5 50.0714286,21.5 Z" id="路径" fill="#666666" fill-rule="nonzero"></path>
        <circle id="椭圆形" fill="#666666" cx="23" cy="37" r="2"></circle>
        <circle id="椭圆形" fill="#666666" cx="32" cy="37" r="2"></circle>
        <circle id="椭圆形" fill="#666666" cx="41" cy="37" r="2"></circle>
    </g>
</svg>