<?xml version="1.0" encoding="UTF-8"?>
<svg width="64px" height="64px" viewBox="0 0 64 64" version="1.1" xmlns="http://www.w3.org/2000/svg" xmlns:xlink="http://www.w3.org/1999/xlink">
    <title>data</title>
    <g id="data" stroke="none" stroke-width="1" fill="none" fill-rule="evenodd">
        <path d="M31.9996736,30.4554286 C40.2420867,30.4554286 48.9993471,27.75 48.9993471,22.7277143 C48.9993471,17.7054286 40.2420867,15 31.9996736,15 C23.7572604,15 15,17.7054286 15,22.7277143 C15,27.75 23.7572604,30.4554286 31.9996736,30.4554286 Z M31.9996736,18.0891429 C40.4897963,18.0891429 45.9102636,20.8334286 45.9102636,22.7277143 C45.9102636,24.622 40.4897963,27.3614286 31.9996736,27.3614286 C23.5095509,27.3614286 18.0890835,24.6171429 18.0890835,22.7277143 C18.0890835,20.8382857 23.5095509,18.0891429 31.9996736,18.0891429 Z M18.0842265,29.2217143 C17.3945254,28.7165714 16.4279726,28.872 15.9276965,29.5617143 C15.29628,30.4262857 14.9854289,31.3491429 15.004857,32.3011429 C15.0437134,34.6277143 17.0351038,36.6531429 20.6001782,38.0082857 C23.5484073,39.1302857 27.3709053,39.7325714 31.4265417,39.7325714 C31.6596801,39.7325714 31.8976755,39.7277143 32.135671,39.7277143 C40.3780841,39.582 49.086774,36.7211429 48.9993471,31.7085714 C48.989633,30.98 48.785637,30.2708571 48.3873589,29.5957143 C47.9550815,28.8574286 46.9982427,28.6145714 46.2745423,29.0468571 C45.5362708,29.4791429 45.2885613,30.4262857 45.7256957,31.1645714 C45.847122,31.3734286 45.9054066,31.5628571 45.9102636,31.7571429 C45.9442629,33.6465714 40.5723661,36.4831429 32.0822434,36.6385714 C28.128605,36.6871429 24.4615326,36.1674286 21.7027284,35.1182857 C19.5267702,34.2925714 18.1133688,33.1657143 18.0987976,32.2428571 C18.0939406,31.9805714 18.2056527,31.6891429 18.42422,31.3831429 C18.9244961,30.6885714 18.7739275,29.722 18.0842265,29.2217143 Z M46.0559751,38.3725714 C45.3517029,38.8485714 45.1574209,39.8102857 45.6382688,40.5194286 C45.8228367,40.7914286 45.9102636,41.0391429 45.9102636,41.2722857 C45.9102636,43.1617143 40.4897963,45.9108571 31.9996736,45.9108571 C23.5095509,45.9108571 18.0890835,43.1617143 18.0890835,41.2722857 C18.0890835,41.044 18.1716534,40.806 18.3367931,40.5534286 C18.8030698,39.8394286 18.6087878,38.8825714 17.8948016,38.4114286 C17.1808153,37.9451429 16.2239765,38.1442857 15.7528427,38.8534286 C15.2525666,39.616 15,40.4271429 15,41.2674286 C15,46.2945714 23.7572604,49 31.9996736,49 C40.2420867,49 48.9993471,46.2945714 48.9993471,41.2722857 C48.9993471,40.4125714 48.7322094,39.5771429 48.202791,38.7902857 C47.7268001,38.0811429 46.7651043,37.8965714 46.0559751,38.3725714 Z" id="形状" fill="#272636" fill-rule="nonzero"></path>
    </g>
</svg>