<?xml version="1.0" encoding="UTF-8"?>
<svg width="64px" height="64px" viewBox="0 0 64 64" version="1.1" xmlns="http://www.w3.org/2000/svg" xmlns:xlink="http://www.w3.org/1999/xlink">
    <title>edit</title>
    <g id="edit" stroke="none" stroke-width="1" fill="none" fill-rule="evenodd">
        <path d="M32,8 C45.254834,8 56,18.745166 56,32 C56,45.254834 45.254834,56 32,56 C18.745166,56 8,45.254834 8,32 C8,18.745166 18.745166,8 32,8 Z M32,11 C20.4020203,11 11,20.4020203 11,32 C11,43.5979797 20.4020203,53 32,53 C43.5979797,53 53,43.5979797 53,32 C53,20.4020203 43.5979797,11 32,11 Z" id="椭圆形" fill="#000000" fill-rule="nonzero"></path>
        <path d="M35.1213203,19.8786797 C36.7781746,19.8786797 38.1213203,21.2218254 38.1213203,22.8786797 L38.1213203,41.8786797 L27.1213203,41.8786797 L27.1213203,22.8786797 C27.1213203,21.2218254 28.4644661,19.8786797 30.1213203,19.8786797 L35.1213203,19.8786797 Z M35.1213203,21.8786797 L30.1213203,21.8786797 C29.5690356,21.8786797 29.1213203,22.3263949 29.1213203,22.8786797 L29.1213203,39.8786797 L36.1213203,39.8786797 L36.1213203,22.8786797 C36.1213203,22.3263949 35.6736051,21.8786797 35.1213203,21.8786797 Z" id="矩形" fill="#000000" fill-rule="nonzero" transform="translate(32.6213, 30.8787) rotate(-315) translate(-32.6213, -30.8787)"></path>
        <polygon id="直线" fill="#000000" fill-rule="nonzero" transform="translate(36.5104, 26.9896) rotate(-315) translate(-36.5104, -26.9896)" points="41.5104076 25.9895924 41.5104076 27.9895924 31.5104076 27.9895924 31.5104076 25.9895924"></polygon>
        <polygon id="矩形" fill="#000000" transform="translate(23.0754, 40.4246) rotate(-315) translate(-23.0754, -40.4246)" points="26.0753788 38.9246212 23.0753788 41.9246212 20.0753788 38.9246212"></polygon>
        <path d="M28.3431458,37.863961 L22.9289322,43.2781746 L22.2218254,42.5710678 L19.2218254,39.5710678 L17.5147186,37.863961 L19.9289322,37.863961 L28.3431458,37.863961 Z M23.5129322,39.863961 L22.3439322,39.863961 L22.9289322,40.448961 L23.5129322,39.863961 Z" id="矩形" fill="#000000" fill-rule="nonzero" transform="translate(22.9289, 40.5711) rotate(-315) translate(-22.9289, -40.5711)"></path>
    </g>
</svg>