<?xml version="1.0" encoding="UTF-8"?>
<svg width="64px" height="64px" viewBox="0 0 64 64" version="1.1" xmlns="http://www.w3.org/2000/svg" xmlns:xlink="http://www.w3.org/1999/xlink">
    <title>fit-center</title>
    <g id="fit-center" stroke="none" stroke-width="1" fill="none" fill-rule="evenodd">
        <path d="M8.78571429,35.5714286 L8.81529018,35.5716518 C9.78783482,35.5874442 10.5714286,36.3808036 10.5714286,37.3571429 L10.5714286,53.4285714 L26.6428571,53.4285714 C27.6290737,53.4285714 28.4285714,54.2280692 28.4285714,55.2142857 C28.4285714,56.2005022 27.6290737,57 26.6428571,57 L8.78571429,57 C7.79949777,57 7,56.2005022 7,55.2142857 L7,37.3571429 C7,36.3709263 7.79949777,35.5714286 8.78571429,35.5714286 Z" id="路径" fill="#000000" fill-rule="nonzero"></path>
        <path d="M55.2142857,35.5714286 C56.2005022,35.5714286 57,36.3709263 57,37.3571429 L57,55.2142857 C57,56.2005022 56.2005022,57 55.2142857,57 L37.3571429,57 C36.3709263,57 35.5714286,56.2005022 35.5714286,55.2142857 C35.5714286,54.2280692 36.3709263,53.4285714 37.3571429,53.4285714 L53.4285714,53.4285714 L53.4285714,37.3571429 C53.4285714,36.3808036 54.2121652,35.5874442 55.1847098,35.5716518 L55.2142857,35.5714286 Z" id="路径" fill="#000000" fill-rule="nonzero"></path>
        <polygon id="路径" fill="#000000" fill-rule="nonzero" points="42.7142857 26.6428571 42.7142857 37.3571429 21.2857143 37.3571429 21.2857143 26.6428571"></polygon>
        <path d="M26.6428571,7 C27.6290737,7 28.4285714,7.79949777 28.4285714,8.78571429 C28.4285714,9.7719308 27.6290737,10.5714286 26.6428571,10.5714286 L10.5714286,10.5714286 L10.5714286,26.6428571 C10.5714286,27.6191964 9.78783482,28.4125558 8.81529018,28.4283482 L8.78571429,28.4285714 C7.79949777,28.4285714 7,27.6290737 7,26.6428571 L7,8.78571429 C7,7.79949777 7.79949777,7 8.78571429,7 L26.6428571,7 Z" id="路径" fill="#000000" fill-rule="nonzero"></path>
        <path d="M55.2142857,7 C56.2005022,7 57,7.79949777 57,8.78571429 L57,26.6428571 C57,27.6290737 56.2005022,28.4285714 55.2142857,28.4285714 L55.1847098,28.4283482 C54.212221,28.4125558 53.4285714,27.6191964 53.4285714,26.6428571 L53.4285714,10.5714286 L37.3571429,10.5714286 C36.3709263,10.5714286 35.5714286,9.7719308 35.5714286,8.78571429 C35.5714286,7.79949777 36.3709263,7 37.3571429,7 L55.2142857,7 Z" id="路径" fill="#000000" fill-rule="nonzero"></path>
    </g>
</svg>