<?xml version="1.0" encoding="UTF-8"?>
<svg width="64px" height="64px" viewBox="0 0 64 64" version="1.1" xmlns="http://www.w3.org/2000/svg" xmlns:xlink="http://www.w3.org/1999/xlink">
    <title>func</title>
    <g id="func" stroke="none" stroke-width="1" fill="none" fill-rule="evenodd">
        <path d="M40.0320784,26.1714016 L31.9301218,30.3727193 L23.9679216,26.3008703 C22.4541109,25.5310564 21.1623432,27.5593994 22.6761539,28.3280469 L30.7872535,32.4757109 L30.7872535,41.8336153 C30.7872535,42.4777918 31.3720301,43 32.0933887,43 C32.8147472,43 33.3995239,42.4777918 33.3995239,41.8336153 L33.3995239,32.4290555 C33.3995239,32.3905648 33.3786257,32.357906 33.3747073,32.3194153 L41.3238461,28.1974118 C42.8376568,27.4299307 41.5458891,25.4015877 40.0320784,26.1714016 L40.0320784,26.1714016 Z" id="路径" fill="#000000" fill-rule="nonzero"></path>
        <path d="M47.0502243,22.0999111 L33.9693827,15.4640682 C32.74977,14.8453106 31.2397659,14.8453106 30.0201533,15.4640682 L16.9484655,22.0999111 C15.7400205,22.7153466 14.9984954,23.8398076 15.0000023,25.0545895 L15.0000023,39.1388968 C15.0000023,40.3708629 15.7610813,41.5076264 16.9916193,42.1139758 L30.0685379,48.5571469 C31.2655934,49.1476177 32.7330964,49.1476177 33.9301519,48.5571469 L47.0070705,42.1139758 C48.2403091,41.5050225 49.0012775,40.369032 49.0000023,39.1388968 L49.0000023,25.0545895 C49.0012298,23.8395759 48.2591719,22.7150618 47.0502243,22.0999111 Z M46.3846091,39.1388968 C46.3846091,39.5491744 46.1309169,39.9288511 45.7203017,40.1305898 L32.6433831,46.5737609 C32.2446157,46.7708972 31.7553818,46.7708972 31.3566143,46.5737609 L18.2796958,40.1305898 C17.8686162,39.9276054 17.6149601,39.5489419 17.6153878,39.1388968 L17.6153878,25.0545895 C17.6153878,24.6488454 17.8625421,24.2748355 18.2653112,24.0696967 L31.336999,17.4338539 C31.7432167,17.2275762 32.2463192,17.2275762 32.652537,17.4338539 L45.7346863,24.0708301 C46.1374554,24.2737021 46.3846091,24.6488454 46.3846091,25.0545895 L46.3846091,39.1388968 L46.3846091,39.1388968 Z" id="形状" fill="#000000" fill-rule="nonzero"></path>
    </g>
</svg>