<?xml version="1.0" encoding="UTF-8"?>
<svg width="64px" height="64px" viewBox="0 0 64 64" version="1.1" xmlns="http://www.w3.org/2000/svg" xmlns:xlink="http://www.w3.org/1999/xlink">
    <title>func</title>
    <g id="func" stroke="none" stroke-width="1" fill="none" fill-rule="evenodd">
        <path d="M40.9336823,24.2117314 L32.4266279,29.4015944 L24.0663177,24.3716633 C22.4768164,23.4207167 21.1204603,25.9263169 22.7099616,26.8758226 L31.2266161,31.9994076 L31.2266161,43.5591718 C31.2266161,44.3549193 31.8406316,45 32.5980581,45 C33.3554846,45 33.9695001,44.3549193 33.9695001,43.5591718 L33.9695001,31.9417744 C33.9695001,31.8942271 33.947557,31.8538839 33.9434427,31.8063366 L42.2900384,26.7144499 C43.8795397,25.766385 42.5231836,23.2607848 40.9336823,24.2117314 L40.9336823,24.2117314 Z" id="路径" fill="#000000" fill-rule="nonzero"></path>
        <path d="M47.992878,19.5616575 L34.5273057,11.5596117 C33.271822,10.8134628 31.7174061,10.8134628 30.4619225,11.5596117 L17.0057733,19.5616575 C15.7617858,20.3038003 14.9984512,21.659768 15.0000024,23.1246521 L15.0000024,40.1086697 C15.0000024,41.5942758 15.783466,42.9650789 17.0501963,43.696265 L30.5117301,51.4659713 C31.7439932,52.1780096 33.254658,52.1780096 34.4869211,51.4659713 L47.9484549,43.696265 C49.2179653,42.9619389 50.0013151,41.592068 50.0000024,40.1086697 L50.0000024,23.1246521 C50.001266,21.6594886 49.2373829,20.3034568 47.992878,19.5616575 Z M47.3076859,40.1086697 C47.3076859,40.6034162 47.0465321,41.0612617 46.62384,41.3045348 L33.1623061,49.0742411 C32.7518102,49.3119642 32.2481871,49.3119642 31.8376912,49.0742411 L18.3761574,41.3045348 C17.9529873,41.0597594 17.6918707,40.6031358 17.6923109,40.1086697 L17.6923109,23.1246521 C17.6923109,22.6353724 17.9467345,22.1843605 18.3613497,21.9369872 L31.8174989,13.9349414 C32.2356642,13.6861948 32.7535639,13.6861948 33.1717292,13.9349414 L46.6386477,21.9383539 C47.0532629,22.1829938 47.3076859,22.6353724 47.3076859,23.1246521 L47.3076859,40.1086697 L47.3076859,40.1086697 Z" id="形状" fill="#000000" fill-rule="nonzero"></path>
    </g>
</svg>