<?xml version="1.0" encoding="UTF-8"?>
<svg width="64px" height="64px" viewBox="0 0 64 64" version="1.1" xmlns="http://www.w3.org/2000/svg" xmlns:xlink="http://www.w3.org/1999/xlink">
    <title>global</title>
    <g id="global" stroke="none" stroke-width="1" fill="none" fill-rule="evenodd">
        <path d="M32,9 C44.7025492,9 55,19.2974508 55,32 C55,44.7025492 44.7025492,55 32,55 C19.2974508,55 9,44.7025492 9,32 C9,19.2974508 19.2974508,9 32,9 Z M39.5815745,42.3529421 C37.4230568,42.1055851 35.1918517,41.957576 32.8878884,41.9090391 L32.7626713,52.9817901 C33.0341041,52.9767238 33.3046345,52.9618575 33.5737535,52.9419193 L33.8681141,52.5801857 C36.4408735,49.4282788 38.3379737,46.0410926 39.5613437,42.4131956 Z M30.885451,41.8919354 C28.5703624,41.9019889 26.4007064,42.027415 24.3765322,42.2675943 C25.5980648,45.9505935 27.5113543,49.3861919 30.1184673,52.5801857 L30.4112513,52.940803 C30.5280516,52.9495398 30.6451182,52.9573213 30.7624433,52.9641395 Z M41.6003368,42.6163517 L41.447909,43.0776842 C40.3174876,46.4209108 38.6493712,49.5724768 36.4448207,52.5288318 C41.6287587,51.4112895 46.1002051,48.381243 49.0847609,44.2138789 L48.7283515,44.1148977 C46.4520539,43.479146 44.0760869,42.979564 41.6003368,42.6163517 Z M22.3658141,42.5518491 L21.9078072,42.6300631 C19.49638,43.0563563 17.3187851,43.6666485 15.3751224,44.4596774 L15.1592791,44.5476658 C18.1378902,48.5388953 22.5019752,51.4355866 27.539001,52.5252065 C25.220499,49.4150977 23.4956867,46.0893905 22.3658141,42.5518491 Z M14.0180153,42.8526019 L14.6195756,42.6078812 C16.7671168,41.7316684 19.1648051,41.068394 21.8127527,40.6166399 C21.2025068,38.2085792 20.8568493,35.7055809 20.7761586,33.1099904 L11.023353,32.9992069 C11.191748,36.594064 12.2640119,39.9525722 14.0180153,42.8526019 Z M43.2017361,33.3622329 C43.1062071,35.8897018 42.7582835,38.3289292 42.1583693,40.6787772 C44.6203401,41.0490936 46.9897894,41.5527918 49.2663465,42.188616 L50.2171942,42.4538463 C51.7573837,39.7756463 52.7239608,36.7257023 52.9492316,33.4717085 Z M32.984,33.246 L32.9099963,39.9090644 C35.4077608,39.9610677 37.8252968,40.1271189 40.1625213,40.4073637 C40.7588709,38.1425837 41.1049784,35.7868447 41.2011167,33.3399944 L32.984,33.246 Z M23.8020219,40.323621 L23.9108508,40.3093683 C26.1710334,40.0303868 28.597012,39.8912784 31.1888472,39.8912784 L30.909,39.892 L30.984,33.224 L22.7779385,33.1330956 C22.8612879,35.6235348 23.2024962,38.0199464 23.8020219,40.323621 Z M49.9241401,21.052329 L49.2663465,21.2364417 C46.9295158,21.8890998 44.4948091,22.402543 41.9623376,22.776967 C42.7575862,25.4868337 43.1786397,28.3498733 43.224623,31.3624005 L52.9934761,31.4713618 C52.8992936,27.6594952 51.7893712,24.0996739 49.9241401,21.052329 Z M39.9541374,23.041165 L39.8066765,23.0594081 C37.6378191,23.3078632 35.4002871,23.4586718 33.0941458,23.5119494 L33.006,31.247 L41.2239967,31.3391831 C41.174812,28.4170013 40.7518419,25.6518917 39.9541374,23.041165 Z M24.0072347,23.1274894 L23.9192793,23.4212292 C23.2127182,25.8576577 22.8287809,28.4271289 22.7667091,31.1317915 L31.006,31.224 L31.092,23.533 L30.4860951,23.5303298 C28.193671,23.5076901 26.0340653,23.3735927 24.0072347,23.1274894 Z M11.023353,31.0007931 L20.766722,31.1088556 C20.8313608,28.2130542 21.2444861,25.4562176 22.0053288,22.8405258 C19.2808077,22.3885889 16.8190015,21.7145587 14.6195756,20.8171765 L14.3038825,20.6882092 C12.3807299,23.6905398 11.200712,27.2145759 11.023353,31.0007931 Z M31.0797011,11.0198036 L31.2288509,11.158001 L30.5495339,11.8918459 C27.9271371,14.7247389 25.9681504,17.8224288 24.6703519,21.1912131 C26.6781692,21.4170684 28.8262579,21.5313478 31.1153579,21.5337409 L31.2337378,11.0137203 C31.1823449,11.0155636 31.1309992,11.0175916 31.0797011,11.0198036 Z M33.226,11.663 L33.1162328,21.5108768 C35.2339165,21.4601109 37.2898761,21.3249589 39.2841668,21.105518 C37.984763,17.7692873 36.0369422,14.7004306 33.4370475,11.8918459 L33.226,11.663 Z M28.3823155,11.31184 L28.2252234,11.3383381 C23.0875152,12.2708592 18.6010279,15.0726044 15.4957911,19.0135445 L15.3751224,18.9653803 C17.5127047,19.8375299 19.9332267,20.4886603 22.6365554,20.9170928 C23.9083345,17.4504252 25.8240883,14.2470167 28.3823155,11.31184 Z M35.6020646,11.3077374 L35.6121485,11.3208872 C38.1495032,14.2341659 40.0541708,17.4115843 41.3242536,20.8477637 C43.8996446,20.482377 46.3675993,19.9694992 48.7283515,19.31016 C45.5872122,15.1680498 40.9397307,12.2303958 35.6020646,11.3077374 Z" id="形状结合" fill="#000000" fill-rule="nonzero"></path>
    </g>
</svg>