<?xml version="1.0" encoding="UTF-8"?>
<svg width="64px" height="64px" viewBox="0 0 64 64" version="1.1" xmlns="http://www.w3.org/2000/svg" xmlns:xlink="http://www.w3.org/1999/xlink">
    <title>help</title>
    <g id="help" stroke="none" stroke-width="1" fill="none" fill-rule="evenodd">
        <path d="M32,12 C43.045695,12 52,20.954305 52,32 C52,43.045695 43.045695,52 32,52 C20.954305,52 12,43.045695 12,32 C12,20.954305 20.954305,12 32,12 Z M32,15 C22.6111593,15 15,22.6111593 15,32 C15,41.3888407 22.6111593,49 32,49 C41.3888407,49 49,41.3888407 49,32 C49,22.6111593 41.3888407,15 32,15 Z" id="椭圆形" fill="#666666" fill-rule="nonzero"></path>
        <g id="?" transform="translate(25.705, 21.16)" fill="#666666" fill-rule="nonzero">
            <path d="M7.11,5.68434189e-14 C4.92,5.68434189e-14 3.18,0.63 1.92,1.92 C0.63,3.18 0,4.89 0,7.08 L3.18,7.08 C3.18,5.76 3.45,4.71 3.99,3.99 C4.59,3.15 5.58,2.73 6.93,2.73 C8.01,2.73 8.85,3.03 9.45,3.63 C10.02,4.23 10.32,5.04 10.32,6.09 C10.32,6.87 10.05,7.59 9.51,8.28 L9,8.85 C7.14,10.5 6,11.73 5.58,12.57 C5.19,13.35 5.01,14.31 5.01,15.42 L5.01,15.93 L8.22,15.93 L8.22,15.42 C8.22,14.67 8.37,14.01 8.7,13.41 C8.97,12.87 9.39,12.36 9.93,11.88 C11.37,10.65 12.21,9.87 12.48,9.54 C13.2,8.58 13.59,7.35 13.59,5.88 C13.59,4.08 12.99,2.64 11.82,1.59 C10.62,0.51 9.06,5.68434189e-14 7.11,5.68434189e-14 Z M6.6,17.55 C5.97,17.55 5.46,17.73 5.07,18.15 C4.62,18.54 4.41,19.05 4.41,19.68 C4.41,20.28 4.62,20.79 5.07,21.21 C5.46,21.63 5.97,21.84 6.6,21.84 C7.2,21.84 7.74,21.63 8.19,21.24 C8.61,20.82 8.82,20.31 8.82,19.68 C8.82,19.05 8.61,18.54 8.19,18.15 C7.77,17.73 7.23,17.55 6.6,17.55 Z" id="形状"></path>
        </g>
    </g>
</svg>