<?xml version="1.0" encoding="UTF-8"?>
<svg width="64px" height="64px" viewBox="0 0 64 64" version="1.1" xmlns="http://www.w3.org/2000/svg" xmlns:xlink="http://www.w3.org/1999/xlink">
    <title>image</title>
    <g id="image" stroke="none" stroke-width="1" fill="none" fill-rule="evenodd">
        <path d="M49,15 C52.8659932,15 56,18.1340068 56,22 L56,43 C56,46.8659932 52.8659932,50 49,50 L15,50 C11.1340068,50 8,46.8659932 8,43 L8,22 C8,18.1340068 11.1340068,15 15,15 L49,15 Z M49,18 L15,18 C12.790861,18 11,19.790861 11,22 L11,43 C11,45.209139 12.790861,47 15,47 L49,47 C51.209139,47 53,45.209139 53,43 L53,22 C53,19.790861 51.209139,18 49,18 Z" id="矩形" fill="#666666" fill-rule="nonzero"></path>
        <path d="M20.5,23 C22.9852814,23 25,25.0147186 25,27.5 C25,29.9852814 22.9852814,32 20.5,32 C18.0147186,32 16,29.9852814 16,27.5 C16,25.0147186 18.0147186,23 20.5,23 Z M20.5,26 C19.6715729,26 19,26.6715729 19,27.5 C19,28.3284271 19.6715729,29 20.5,29 C21.3284271,29 22,28.3284271 22,27.5 C22,26.6715729 21.3284271,26 20.5,26 Z" id="椭圆形" fill="#666666" fill-rule="nonzero"></path>
        <polygon id="路径-4" fill="#666666" fill-rule="nonzero" points="38.8768996 31.838731 40.0206766 32.9008098 54.0206766 45.9008098 51.9793234 48.0991902 39.122 36.161 28.1388849 48.9761871 25.8611151 47.0238129 37.8611151 33.0238129"></polygon>
        <polygon id="路径-5" fill="#666666" fill-rule="nonzero" points="22.0136377 35.0360728 22.9761871 35.8611151 29.9761871 41.8611151 28.0238129 44.1388849 21.986 38.964 10.9602766 48.1523319 9.0397234 45.8476681 21.0397234 35.8476681"></polygon>
    </g>
</svg>