<?xml version="1.0" encoding="UTF-8"?>
<svg width="64px" height="64px" viewBox="0 0 64 64" version="1.1" xmlns="http://www.w3.org/2000/svg" xmlns:xlink="http://www.w3.org/1999/xlink">
    <title>menu</title>
    <g id="menu" stroke="none" stroke-width="1" fill="none" fill-rule="evenodd">
        <circle id="椭圆形" fill="#000000" cx="16.7717842" cy="20.0497925" r="3.04979253"></circle>
        <path d="M47.7780083,18.0518672 C48.6064354,18.0518672 49.2780083,18.7234401 49.2780083,19.5518672 C49.2780083,20.3802943 48.6064354,21.0518672 47.7780083,21.0518672 L26.4294606,21.0518672 C25.6010335,21.0518672 24.9294606,20.3802943 24.9294606,19.5518672 C24.9294606,18.7234401 25.6010335,18.0518672 26.4294606,18.0518672 L47.7780083,18.0518672 Z" id="直线-5" fill="#000000" fill-rule="nonzero"></path>
        <circle id="椭圆形" fill="#000000" cx="17" cy="32" r="3"></circle>
        <path d="M47.7780083,30.5 C48.6064354,30.5 49.2780083,31.1715729 49.2780083,32 C49.2780083,32.8284271 48.6064354,33.5 47.7780083,33.5 L26.4294606,33.5 C25.6010335,33.5 24.9294606,32.8284271 24.9294606,32 C24.9294606,31.1715729 25.6010335,30.5 26.4294606,30.5 L47.7780083,30.5 Z" id="直线-5" fill="#000000" fill-rule="nonzero"></path>
        <circle id="椭圆形" fill="#000000" cx="17" cy="44" r="3"></circle>
        <path d="M47.5,42.5 C48.3284271,42.5 49,43.1715729 49,44 C49,44.8284271 48.3284271,45.5 47.5,45.5 L26.5,45.5 C25.6715729,45.5 25,44.8284271 25,44 C25,43.1715729 25.6715729,42.5 26.5,42.5 L47.5,42.5 Z" id="直线-5" fill="#000000" fill-rule="nonzero"></path>
    </g>
</svg>