<?xml version="1.0" encoding="UTF-8"?>
<svg width="64px" height="64px" viewBox="0 0 64 64" version="1.1" xmlns="http://www.w3.org/2000/svg" xmlns:xlink="http://www.w3.org/1999/xlink">
    <title>plus</title>
    <g id="plus" stroke="none" stroke-width="1" fill="none" fill-rule="evenodd">
        <path d="M32,7 C32.9862165,7 33.7857143,7.79949777 33.7857143,8.78571429 L33.7856585,30.2142857 L55.2142857,30.2142857 C56.2005022,30.2142857 57,31.0137835 57,32 C57,32.9862165 56.2005022,33.7857143 55.2142857,33.7857143 L33.7856585,33.7857143 L33.7857143,55.2142857 C33.7857143,56.2005022 32.9862165,57 32,57 C31.0137835,57 30.2142857,56.2005022 30.2142857,55.2142857 L30.2142299,33.7857143 L8.78571429,33.7857143 C7.79949777,33.7857143 7,32.9862165 7,32 C7,31.0137835 7.79949777,30.2142857 8.78571429,30.2142857 L30.2142299,30.2142857 L30.2142857,8.78571429 C30.2142857,7.79949777 31.0137835,7 32,7 Z" id="路径" fill="#000000" fill-rule="nonzero"></path>
    </g>
</svg>