<?xml version="1.0" encoding="UTF-8"?>
<svg width="36px" height="36px" viewBox="0 0 36 36" version="1.1" xmlns="http://www.w3.org/2000/svg" xmlns:xlink="http://www.w3.org/1999/xlink">
    <title>role</title>
    <g id="role" stroke="none" stroke-width="1" fill="none" fill-rule="evenodd">
        <path d="M18,3 C21.8659932,3 25,5.91014913 25,9.5 C25,13.0898509 21.8659932,16 18,16 C14.1340068,16 11,13.0898509 11,9.5 C11,5.91014913 14.1340068,3 18,3 Z M18,5 C15.2705907,5 13,6.99045286 13,9.5 C13,12.0095471 15.2705907,14 18,14 C20.7294093,14 23,12.0095471 23,9.5 C23,6.99045286 20.7294093,5 18,5 Z" id="椭圆形" fill="#000000" fill-rule="nonzero"></path>
        <path d="M24.5144784,12.0002143 C27.9094545,13.9003266 30,17.1546152 30,20.7136754 C30,24.1503657 28.4214415,26.085764 25.2275213,26.9132771 L25.197,26.9201877 L25.7151239,28.9531668 L25.7313557,29.037879 C25.7443839,29.1384439 25.7509126,29.2395815 25.7509126,29.3407945 C25.7509126,30.7932112 24.4261634,31.9962396 22.7509126,31.9962396 L13.2432137,31.9963264 C13.2385835,31.9964301 13.2303865,31.9966852 13.2057955,31.9974504 C13.1838728,31.9981643 13.1838728,31.9981643 13.1563205,31.9989207 C13.0550256,32.001453 12.9717374,32 12.8737121,31.9895206 C11.2193656,31.8127745 10.0821659,30.4773061 10.2829505,28.960905 L10.859,26.5887 L10.6598224,26.5258332 C7.73744401,25.5617881 6.09547858,23.753784 6.0040376,20.9625188 L6,20.7136754 C6,17.1548234 8.09032434,13.9005241 11.4848012,12 L12.5947701,13.3962108 C9.75439604,14.9864998 8,17.7178126 8,20.7136754 C8,22.7931864 9.00176576,24.080095 11.0466956,24.8442392 L11.159,24.8842656 L12.0058672,18.3526067 L13.9941328,18.5341551 L13.102,25.4096107 L13.182253,25.4292597 L12.9969997,26.1916598 L12.256928,29.2192876 C12.1839783,29.7823871 12.5975372,30.2680494 13.1262879,30.3245397 L13.105,30.3206643 L13.1282763,30.3202927 C13.1756938,30.3186784 13.1756938,30.3186784 13.2490874,30.3178207 L22.7509126,30.3178207 C23.2848008,30.3178207 23.7509126,29.8945363 23.7509126,29.3407945 C23.7509126,29.300169 23.7482931,29.2595898 23.743072,29.2192876 L23.746,29.2515115 L23.0406016,26.4822531 L22.8301418,25.6559522 L22.926,25.6387149 L22.0058558,18.5340674 L23.9941442,18.3526944 L24.886,25.2417688 L24.9165554,25.2338735 C27.0030532,24.6184021 27.940702,23.3749298 27.9972675,20.9518663 L28,20.7136754 C28,17.71768 26.2454775,14.9864681 23.4047889,13.3965814 L24.5144784,12.0002143 Z" id="形状" fill="#000000" fill-rule="nonzero"></path>
    </g>
</svg>