<?xml version="1.0" encoding="UTF-8"?>
<svg width="64px" height="64px" viewBox="0 0 64 64" version="1.1" xmlns="http://www.w3.org/2000/svg" xmlns:xlink="http://www.w3.org/1999/xlink">
    <title>settings</title>
    <g id="settings" stroke="none" stroke-width="1" fill="none" fill-rule="evenodd">
        <path d="M22.6304348,17.3569603 C20.1796248,18.7620258 17.2912695,19.2187331 14.5212294,18.6391894 C12.9816822,20.4362989 11.7384851,22.4635076 10.8377083,24.6456915 C12.7990459,26.7492609 13.8875327,29.5091625 13.8856466,32.37386 C13.8875185,35.4075668 12.6671993,38.3163583 10.4958713,40.4538361 C11.4096577,42.994867 12.7849479,45.3485548 14.5537234,47.3984918 C17.4935603,46.6196125 20.6250492,47.0303068 23.2595188,48.5402555 C25.7333531,49.9536486 27.5866759,52.2308959 28.4572608,54.926916 C30.8014966,55.2463968 33.182063,55.194198 35.5097609,54.7722754 C36.2910151,51.8389539 38.2216426,49.3365384 40.8725725,47.8211763 C43.3738001,46.3870811 46.3287282,45.9415942 49.1468474,46.5737414 C50.6026576,44.7095692 51.7519762,42.6288688 52.5522198,40.4087326 C50.6610791,38.3202905 49.6157462,35.6122077 49.6173607,32.8055653 C49.6173607,29.9936821 50.6545695,27.354481 52.4456394,25.3183785 C51.6937375,23.2985702 50.6485472,21.3983728 49.3431113,19.6778594 C46.4340285,20.4169192 43.3486537,19.995906 40.7490953,18.5051675 C37.9820692,16.9233248 36.0048644,14.2700046 35.292701,11.1829308 C32.7984052,10.7591573 30.2495384,10.759593 27.7553902,11.1842194 C26.8572167,13.7891473 25.0362059,15.9824597 22.6304348,17.3569603 L22.6304348,17.3569603 Z M24.463097,7.96124972 C29.1188389,6.6725773 34.1320149,6.65453589 38.9242316,8.05918883 C38.7022942,10.884771 40.1002396,13.5943775 42.5410258,15.0695407 C44.9818121,16.544704 48.051505,16.5352503 50.4830012,15.045082 C53.5822651,18.2660743 55.7949884,22.2224536 56.9090168,26.5348853 C54.7891635,27.928224 53.5152049,30.2826057 53.516642,32.8042766 C53.5150856,35.3646407 54.8276538,37.7498401 57,39.1342355 C56.4084011,41.5420969 55.4726384,43.8537356 54.2211122,45.9989935 C53.1399258,47.8582759 51.831111,49.5779429 50.3244304,51.118889 C47.9895022,49.8231626 45.1388046,49.8427494 42.8222132,51.1704359 C40.405169,52.5530928 38.948587,55.1395084 39.0295122,57.905038 C34.5006975,59.2513151 29.6889542,59.3581815 25.1038789,58.2143194 C25.0373996,55.5942214 23.599941,53.1974119 21.3098782,51.8882265 C18.910832,50.5135053 15.9467476,50.5446272 13.5776033,51.9694128 C9.82058777,48.4779938 7.18489386,43.9660616 6,38.9976363 C8.45613931,37.6844224 9.98709983,35.1405662 9.98636526,32.37386 C9.98636526,29.6251218 8.49943932,27.2191704 6.27944849,25.9073018 C6.8726008,23.8429901 7.72084369,21.8592877 8.80488302,20.0013161 C10.0527301,17.8536797 11.6038758,15.8939687 13.411234,14.1816715 C15.7060954,15.3547161 18.4452257,15.2896504 20.6807941,14.0089894 C22.8850901,12.7499021 24.3055522,10.4786443 24.463097,7.96124972 L24.463097,7.96124972 Z M31.9536164,38.9924816 C35.0439084,38.9924816 37.5490851,36.5086761 37.5490851,33.4447468 C37.5490851,30.3808175 35.0439084,27.8970121 31.9536164,27.8970121 C28.8633244,27.8970121 26.3581479,30.3808176 26.3581479,33.4447468 C26.3581479,36.5086761 28.8633244,38.9924816 31.9536164,38.9924816 Z M31.9536164,42.8584988 C26.7098108,42.8584988 22.4588664,38.6438185 22.4588664,33.4447468 C22.4588664,28.2456751 26.7098108,24.0309948 31.9536164,24.0309948 C37.197422,24.0309948 41.4483664,28.2456751 41.4483664,33.4447468 C41.4483664,38.6438185 37.197422,42.8584988 31.9536164,42.8584988 L31.9536164,42.8584988 Z" id="形状" fill="#000000" fill-rule="nonzero"></path>
    </g>
</svg>