<?xml version="1.0" encoding="UTF-8"?>
<svg width="64px" height="64px" viewBox="0 0 64 64" version="1.1" xmlns="http://www.w3.org/2000/svg" xmlns:xlink="http://www.w3.org/1999/xlink">
    <title>split</title>
    <g id="split" stroke="none" stroke-width="1" fill="none" fill-rule="evenodd">
        <polygon id="直线" fill="#666666" fill-rule="nonzero" points="54 19.2033898 54 22.2033898 10 22.2033898 10 19.2033898"></polygon>
        <polygon id="直线-2" fill="#666666" fill-rule="nonzero" points="13 15 13 26.4067797 10 26.4067797 10 15"></polygon>
        <polygon id="直线-2" fill="#666666" fill-rule="nonzero" points="54 15 54 26.4067797 51 26.4067797 51 15"></polygon>
        <path d="M52,29.6355932 C53.1045695,29.6355932 54,30.5310237 54,31.6355932 L54,45.5 C54,46.6045695 53.1045695,47.5 52,47.5 L12,47.5 C10.8954305,47.5 10,46.6045695 10,45.5 L10,31.6355932 C10,30.5310237 10.8954305,29.6355932 12,29.6355932 L52,29.6355932 Z M51,32.6355932 L13,32.6355932 L13,44.4995932 L51,44.4995932 L51,32.6355932 Z" id="矩形" fill="#666666" fill-rule="nonzero"></path>
    </g>
</svg>