<?xml version="1.0" encoding="UTF-8"?>
<svg width="48px" height="48px" viewBox="0 0 48 48" version="1.1" xmlns="http://www.w3.org/2000/svg" xmlns:xlink="http://www.w3.org/1999/xlink">
    <title>theme-dark</title>
    <g id="theme-dark" stroke="none" stroke-width="1" fill="none" fill-rule="evenodd">
        <path d="M18.2141047,6.95011282 C17.4299283,9.14170419 17,11.5176006 17,14 C17,19.5092076 19.1168436,24.4923652 22.5251584,28.1011691 C25.9736711,31.7525355 30.7408397,34 36,34 C37.0725655,34 38.1244893,33.9064123 39.1484693,33.7268069 C37.9123815,35.6477135 36.3207918,37.3182291 34.4669991,38.6457321 C31.5178421,40.7576269 27.9039368,42 24,42 C19.0294373,42 14.5294373,39.9852814 11.2720779,36.7279221 C8.01471863,33.4705627 6,28.9705627 6,24 C6,19.391196 7.73197269,15.1868378 10.580925,12.0026935 C12.6259629,9.71704767 15.2462208,7.95644708 18.2141047,6.95011282 Z" id="形状结合" stroke="#000000" stroke-width="4"></path>
        <path d="M39.7087977,8.26176509 L38.0509759,11.8994949 L39.7087977,15.5372248 L36.0710678,13.879403 L32.433338,15.5372248 L34.0911597,11.8994949 L32.433338,8.26176509 L36.0710678,9.91958684 L39.7087977,8.26176509 Z" id="星形" stroke="#000000" stroke-width="2" transform="translate(36.0711, 11.8995) rotate(45) translate(-36.0711, -11.8995)"></path>
    </g>
</svg>