<?xml version="1.0" encoding="UTF-8"?>
<svg width="64px" height="64px" viewBox="0 0 64 64" version="1.1" xmlns="http://www.w3.org/2000/svg" xmlns:xlink="http://www.w3.org/1999/xlink">
    <title>theme-system</title>
    <g id="theme-system" stroke="none" stroke-width="1" fill="none" fill-rule="evenodd">
        <path d="M31.8782838,11.984168 C32.2144217,11.984168 32.5486437,11.9922821 32.8807607,12.0083232 C32.8872837,12.0093609 32.8936111,12.0096729 32.8999377,12.0099878 C34.1318801,12.0698955 35.3349764,12.2396491 36.4993642,12.5089435 C36.5341179,12.5173976 36.5684459,12.5254059 36.6027403,12.5335 C36.7536041,12.5688575 36.9043652,12.6063955 37.0544429,12.6455975 C45.7829058,14.9172483 52.2198931,22.7770573 52.2198931,32.1240553 C52.2198931,43.247008 43.1044346,52.2639427 31.8599466,52.2639427 C20.6154586,52.2639427 11.5,43.247008 11.5,32.1240553 C11.5,21.0817349 20.4837785,12.1150094 31.6157451,11.9855869 L31.5209905,11.9872281 C31.6398411,11.9851908 31.7589417,11.984168 31.8782838,11.984168 Z M13.5,32.1240553 C13.5,42.0256207 21.5325719,50.0820453 31.5205072,50.2609057 L31.5205072,13.987205 C21.5325719,14.1660653 13.5,22.2224899 13.5,32.1240553 Z" id="形状结合" fill="#000000" fill-rule="nonzero"></path>
    </g>
</svg>