<?xml version="1.0" encoding="UTF-8"?>
<svg width="64px" height="64px" viewBox="0 0 64 64" version="1.1" xmlns="http://www.w3.org/2000/svg" xmlns:xlink="http://www.w3.org/1999/xlink">
    <title>zoom-in</title>
    <g id="zoom-in" stroke="none" stroke-width="1" fill="none" fill-rule="evenodd">
        <path d="M28.3634261,7 C40.1621014,7 49.7268522,16.5868356 49.7268522,28.4127538 C49.7268522,33.6548079 47.8475383,38.4568967 44.7273098,42.1790913 L56.4783624,53.9536524 C57.1737308,54.6504033 57.1738977,55.7802049 56.4787519,56.4771789 C55.783606,57.1740971 54.6564071,57.1743201 53.9610387,56.4775692 L42.2188875,44.7119301 C38.488633,47.9005903 33.6503177,49.8255076 28.3634261,49.8255076 C16.5647508,49.8255076 7,40.238672 7,28.4127538 C7,16.5868356 16.5647508,7 28.3634261,7 Z M28.3634261,10.5687923 C18.5311874,10.5687923 10.560571,18.5578127 10.560571,28.4127538 C10.560571,38.267695 18.5311874,46.2567153 28.3634261,46.2567153 C38.1956648,46.2567153 46.1662812,38.267695 46.1662812,28.4127538 C46.1662812,18.5578127 38.1956648,10.5687923 28.3634261,10.5687923 Z M28.3634261,17.7063769 C29.3466444,17.7063769 30.1437116,18.5052845 30.1437116,19.4907731 L30.1437116,26.6283577 L37.2648536,26.6283577 C38.2480719,26.6283577 39.0451391,27.4272653 39.0451391,28.4127538 C39.0451391,29.3982424 38.2480719,30.19715 37.2648536,30.19715 L30.1437116,30.19715 L30.1437116,37.3347346 C30.1437116,38.3202231 29.3466444,39.1191307 28.3634261,39.1191307 C27.3802078,39.1191307 26.5831406,38.3202231 26.5831406,37.3347346 L26.5831406,30.19715 L19.4619985,30.19715 C18.4787802,30.19715 17.681713,29.3982424 17.681713,28.4127538 C17.681713,27.4272653 18.4787802,26.6283577 19.4619985,26.6283577 L26.5831406,26.6283577 L26.5831406,19.4907731 C26.5831406,18.5052845 27.3802078,17.7063769 28.3634261,17.7063769 Z" id="形状" fill="#000000" fill-rule="nonzero"></path>
    </g>
</svg>